# xmcd
#
# Track frame offsets: 
#        150
#        23257
#        45537
#        63937
#        90580
#        115650
#        138570
#        165382
#        179095
#        196360
#        220330
#
# Disc length: 3231 seconds
#
# Revision: 3
# Processed by: cddbd v1.5.2PL0 Copyright (c) Steve Scherf et al.
# Submitted via: ExactAudioCopy v1.3
#
DISCID=8f0c9d0b
DTITLE=Roy D. Mercer - How Big 'A Boy Are Ya Vol 1
DYEAR=1994
DGENRE=Comedy
TTITLE0=Bad Pager
TTITLE1=Dead Rooster
TTITLE2=Janitor
TTITLE3=Car Dealer
TTITLE4=Network
TTITLE5=Gold Course
TTITLE6=Burrito
TTITLE7=Dead Hamster
TTITLE8=Barber Shop
TTITLE9=Bird Dog
TTITLE10=Body Shop
EXTD=
EXTT0=
EXTT1=
EXTT2=
EXTT3=
EXTT4=
EXTT5=
EXTT6=
EXTT7=
EXTT8=
EXTT9=
EXTT10=
PLAYORDER=
